<svg width="355" height="96" viewBox="0 0 355 96" fill="none" xmlns="http://www.w3.org/2000/svg">
<g clip-path="url(#clip0_207_270)">
<mask id="mask0_207_270" style="mask-type:luminance" maskUnits="userSpaceOnUse" x="0" y="0" width="355" height="96">
<path d="M0 0H354.64V96H0V0Z" fill="white"/>
</mask>
<g mask="url(#mask0_207_270)">
<path d="M158.128 79.332C153.594 79.332 149.704 78.605 146.453 77.158C143.201 75.71 140.785 73.637 139.2 70.943C137.615 68.25 137.044 65.042 137.481 61.323H146.861C146.669 63.541 147.077 65.373 148.09 66.821C149.099 68.269 150.535 69.351 152.394 70.063C154.252 70.775 156.351 71.131 158.7 71.131C161.293 71.131 163.671 70.727 165.827 69.919C167.984 69.111 169.765 67.971 171.173 66.494C172.554 65.0656 173.463 63.2471 173.776 61.285C174.074 59.505 173.814 58.058 172.998 56.937C172.177 55.817 170.961 54.878 169.352 54.128C167.739 53.378 165.87 52.7 163.738 52.098L156.855 50.131C152.35 48.876 148.849 46.966 146.347 44.407C143.849 41.848 142.951 38.395 143.662 34.047C144.21 30.521 145.588 27.428 147.797 24.773C150.011 22.123 152.816 20.055 156.217 18.578C159.617 17.102 163.378 16.361 167.503 16.361C171.629 16.361 175.217 17.087 178.276 18.535C181.336 19.983 183.636 21.979 185.178 24.523C186.719 27.068 187.257 29.978 186.796 33.263H177.743C177.877 30.473 176.936 28.313 174.914 26.779C172.892 25.249 170.135 24.479 166.639 24.479C164.18 24.479 161.985 24.865 160.045 25.629C158.104 26.394 156.534 27.448 155.333 28.789C154.132 30.131 153.378 31.661 153.08 33.383C152.754 35.297 153.076 36.856 154.041 38.058C155.011 39.261 156.294 40.213 157.893 40.91C159.417 41.5812 160.985 42.1501 162.585 42.613L168.195 44.172C170.025 44.662 171.893 45.322 173.805 46.139C175.691 46.945 177.444 48.0312 179.006 49.361C180.562 50.689 181.725 52.329 182.488 54.281C183.252 56.24 183.415 58.611 182.978 61.401C182.407 64.844 181.067 67.923 178.963 70.631C176.859 73.339 174.059 75.465 170.568 77.009C167.071 78.552 162.921 79.327 158.114 79.327L158.128 79.332Z" fill="white" fill-opacity="0.9"/>
<path d="M211.651 33.186L210.465 40.53H185.639L186.825 33.186H211.651ZM195.345 22.276H204.355L197.021 66.662C196.719 68.548 196.897 69.909 197.554 70.746C198.208 71.583 199.413 71.996 201.161 71.996C201.627 71.996 202.247 71.944 203.025 71.833C203.803 71.723 204.48 71.617 205.052 71.506L205.422 78.726C204.466 79.029 203.428 79.26 202.309 79.423C201.21 79.585 200.101 79.6669 198.991 79.668C194.783 79.668 191.724 78.586 189.812 76.426C187.901 74.266 187.257 71.256 187.886 67.403L195.34 22.277H195.345V22.276ZM221.939 79.625C218.851 79.625 216.243 78.975 214.115 77.677C211.983 76.378 210.475 74.445 209.591 71.871C208.702 69.303 208.573 66.114 209.202 62.314L213.995 33.185H223.005L218.418 61.203C217.871 64.483 218.294 67.061 219.686 68.937C221.079 70.813 223.279 71.747 226.281 71.747C228.303 71.747 230.185 71.309 231.934 70.433C233.682 69.558 235.171 68.273 236.4 66.576C237.63 64.883 238.446 62.8 238.859 60.342L243.326 33.185H252.336L244.757 79.048H236.155L237.956 67.807H238.859C236.837 71.963 234.393 74.974 231.525 76.83C228.658 78.692 225.464 79.62 221.939 79.62V79.625ZM267.581 79.952C262.72 79.952 258.816 78.332 255.867 75.089C252.918 71.847 251.443 67.355 251.443 61.612C251.443 58.029 251.962 54.512 252.999 51.069C254.037 47.625 255.54 44.513 257.505 41.737C259.469 38.962 261.875 36.745 264.714 35.09C267.552 33.436 270.789 32.608 274.42 32.608C277.34 32.608 279.626 33.094 281.283 34.066C282.936 35.037 284.165 36.177 284.972 37.49C285.779 38.803 286.37 39.939 286.754 40.896H287.244L291.014 17.924H300.067L289.948 79.048H281.139L282.407 71.867H281.668C280.957 72.958 280.02 74.137 278.863 75.392C277.7 76.652 276.207 77.725 274.377 78.615C272.547 79.505 270.28 79.947 267.576 79.947L267.581 79.952ZM269.833 72.28C272.398 72.28 274.655 71.645 276.591 70.37C278.527 69.096 280.15 67.417 281.447 65.325C282.743 63.233 283.718 60.943 284.376 58.452C285.034 55.965 285.361 53.502 285.361 51.069C285.361 47.759 284.602 45.133 283.089 43.19C281.572 41.247 279.261 40.28 276.144 40.28C273.604 40.28 271.365 40.9 269.425 42.146C267.485 43.392 265.866 45.032 264.569 47.072C263.253 49.1537 262.259 51.4223 261.621 53.801C260.953 56.249 260.617 58.678 260.617 61.083C260.617 64.363 261.366 67.052 262.869 69.144C264.373 71.237 266.692 72.28 269.833 72.28ZM295.399 79.053L302.978 33.19H311.988L304.41 79.053H295.399ZM329.488 79.995C325.637 79.995 322.347 79.215 319.619 77.657C316.886 76.099 314.792 73.906 313.332 71.073C311.872 68.244 311.142 64.926 311.142 61.126C311.142 57.326 311.713 53.969 312.861 50.563C314.009 47.158 315.666 44.103 317.837 41.396C319.979 38.7115 322.676 36.5209 325.742 34.974C328.84 33.402 332.341 32.618 336.251 32.618C340.16 32.618 343.364 33.392 346.121 34.936C348.877 36.48 350.986 38.678 352.451 41.521C353.911 44.363 354.641 47.701 354.641 51.531C354.641 55.359 354.065 58.769 352.921 62.174C351.774 65.58 350.102 68.624 347.902 71.304C345.733 73.9601 343.026 76.127 339.959 77.662C336.856 79.221 333.369 80 329.493 80L329.488 79.995ZM329.733 72.366C332.385 72.366 334.695 71.722 336.678 70.438C338.657 69.153 340.309 67.48 341.635 65.411C342.971 63.3237 343.972 61.0405 344.603 58.644C345.261 56.196 345.588 53.824 345.588 51.525C345.588 49.365 345.251 47.437 344.584 45.739C343.916 44.046 342.869 42.704 341.452 41.718C340.031 40.732 338.201 40.241 335.963 40.241C333.34 40.241 331.049 40.876 329.08 42.151C327.116 43.421 325.468 45.104 324.143 47.196C322.813 49.2986 321.805 51.5878 321.151 53.988C320.483 56.422 320.147 58.818 320.147 61.169C320.147 64.368 320.911 67.037 322.443 69.168C323.97 71.298 326.4 72.366 329.733 72.366ZM53.355 56.672L39.744 56.437L31.219 78.287H14.207L31.204 31.584L49.661 16L85.481 16.067L62.874 78.22L46.434 78.307L53.355 56.672ZM59.339 41.3L62.956 31.315L54.566 31.199L43.106 41.141L59.339 41.295V41.3ZM134.168 31.656L122.852 62.71L104.472 78.323L68.465 78.289L91.072 16.049L126.944 16.011L134.168 31.656ZM5.35 35.153L25.46 39.684L20.08 54.758L0 59.178L5.35 35.153Z" fill="white" fill-opacity="0.9"/>
<path d="M102.238 63.123C102.324 54.903 96.3829 47.986 87.9009 46.827C91.2729 46.408 94.2699 45.393 96.8349 43.325C97.6079 42.666 98.3279 42.022 99.0099 41.276C101.028 38.934 102.502 36.226 102.824 33.143L103.025 31.209C102.997 34.917 104.197 38.491 106.536 41.43C109.322 44.912 112.871 46.764 117.357 47.514C113.121 47.962 109.5 49.602 106.652 52.613C103.981 55.436 102.483 59.029 102.238 63.118V63.123Z" fill="#8850FF"/>
<path d="M307.683 30.016C308.005 26.496 305.695 23.321 302.103 22.532C303.563 22.469 304.883 22.137 306.055 21.339C306.407 21.0943 306.743 20.8261 307.059 20.536C308.005 19.603 308.73 18.492 308.975 17.183L309.129 16.361C308.983 17.9497 309.39 19.5401 310.282 20.863C311.358 22.455 312.813 23.369 314.71 23.85C312.875 23.893 311.266 24.47 309.946 25.663C308.702 26.779 307.933 28.27 307.688 30.016H307.683Z" fill="white" fill-opacity="0.9"/>
</g>
</g>
<defs>
<clipPath id="clip0_207_270">
<rect width="355" height="96" fill="white"/>
</clipPath>
</defs>
</svg>
