<svg width="274" height="135" viewBox="0 0 274 135" fill="none" xmlns="http://www.w3.org/2000/svg">
<g clip-path="url(#clip0_25972_70918)">
<path d="M0 56.7496V14.5496C0 13.3396 0.98 12.3496 2.2 12.3496H13.09C14.02 12.3496 14.85 12.9396 15.16 13.8096L22.21 33.7396C22.52 34.7396 22.88 36.0296 23.29 37.6196C23.7 39.2096 24.11 40.9096 24.53 42.7496C24.95 44.5896 25.34 46.3696 25.7 48.0996C26.06 49.8296 26.36 51.3296 26.59 52.5996C27.01 51.8796 27.42 51.1696 27.84 50.4496C27.06 50.0296 26.03 49.3196 25.64 48.1396C25.21 46.8596 26.06 46.1096 26.81 42.8096C27.23 40.9796 27.64 39.2596 28.04 37.6496C28.44 36.0396 28.81 34.7396 29.12 33.7396L36.05 13.8296C36.36 12.9496 37.19 12.3596 38.12 12.3596H49.06C50.27 12.3596 51.26 13.3396 51.26 14.5596V56.7596C51.26 57.9696 50.28 58.9596 49.06 58.9596H43.85C42.64 58.9596 41.65 57.9796 41.65 56.7596V36.9996C41.65 35.9796 41.67 34.7096 41.7 33.1796C41.73 31.6496 41.77 30.0196 41.83 28.2596C41.88 26.4996 41.93 24.7296 41.97 22.9396C42.01 21.1496 42.04 19.4696 42.06 17.8896H42.65C42.25 19.6196 41.82 21.4096 41.34 23.2496C40.86 25.0896 40.38 26.8796 39.89 28.6096C39.4 30.3396 38.94 31.9296 38.5 33.3796C38.06 34.8296 37.69 36.0296 37.37 36.9896L30.16 57.4696C29.85 58.3496 29.02 58.9396 28.09 58.9396H23.16C22.23 58.9396 21.4 58.3596 21.09 57.4796L13.76 36.9796C13.45 36.0196 13.07 34.8296 12.63 33.3996C12.19 31.9696 11.73 30.3896 11.24 28.6596C10.75 26.9296 10.25 25.1396 9.75 23.2996C9.25 21.4596 8.78 19.6496 8.34 17.8696H9.06C9.08 19.3696 9.11 21.0096 9.15 22.7796C9.19 24.5496 9.24 26.3296 9.29 28.1096C9.34 29.8896 9.38 31.5496 9.42 33.0796C9.45 34.6096 9.47 35.9096 9.47 36.9696V56.7296C9.47 57.9396 8.49 58.9296 7.27 58.9296H2.2C0.99 58.9296 0 57.9496 0 56.7296V56.7496Z" fill="white"/>
<path d="M64.0775 59.6408C61.8675 59.6408 59.8775 59.2508 58.1175 58.4708C56.3575 57.6908 54.9675 56.5208 53.9575 54.9708C52.9475 53.4208 52.4375 51.4808 52.4375 49.1708C52.4375 47.2308 52.7975 45.6108 53.5175 44.2908C54.2375 42.9708 55.2175 41.9208 56.4575 41.1308C57.6975 40.3408 59.1075 39.7308 60.6775 39.3208C62.2475 38.9108 63.9075 38.6108 65.6375 38.4408C67.6575 38.2308 69.2875 38.0408 70.5275 37.8608C71.7675 37.6808 72.6775 37.4008 73.2475 37.0208C73.8175 36.6408 74.1075 36.0708 74.1075 35.3208V35.1608C74.1075 34.1608 73.8975 33.3108 73.4775 32.6308C73.0575 31.9508 72.4375 31.4208 71.6175 31.0508C70.7975 30.6908 69.7975 30.5008 68.6275 30.5008C67.4575 30.5008 66.3675 30.6808 65.4675 31.0508C64.5675 31.4208 63.8375 31.9008 63.2775 32.5008C63.0575 32.7408 62.8575 32.9908 62.6775 33.2608C62.1775 34.0008 61.3375 34.4208 60.4575 34.2808L56.1875 33.5808C54.6675 33.3308 53.8575 31.6308 54.6275 30.3008C55.1275 29.4308 55.7275 28.6408 56.4275 27.9308C57.8275 26.5108 59.5575 25.4308 61.6375 24.6808C63.7175 23.9308 66.0475 23.5508 68.6575 23.5508C70.5375 23.5508 72.3575 23.7708 74.1275 24.2208C75.8975 24.6708 77.4875 25.3608 78.8975 26.3008C80.3075 27.2408 81.4175 28.4608 82.2475 29.9808C83.0775 31.5008 83.4875 33.3008 83.4875 35.4108V56.7608C83.4875 57.9708 82.5075 58.9608 81.2875 58.9608H76.7975C75.5875 58.9608 74.5975 57.9808 74.5975 56.7608V54.1108H74.2875C73.7275 55.1908 72.9775 56.1508 72.0375 56.9708C71.0975 57.7908 69.9675 58.4408 68.6475 58.9208C67.3275 59.4008 65.7975 59.6408 64.0675 59.6408H64.0775ZM66.7375 53.0408C68.2175 53.0408 69.5175 52.7508 70.6275 52.1608C71.7375 51.5808 72.6175 50.7808 73.2375 49.7808C73.8575 48.7808 74.1775 47.6608 74.1775 46.4308V42.6508C73.9075 42.8608 73.4875 43.0508 72.9275 43.2108C72.3675 43.3708 71.7375 43.5208 71.0475 43.6508C70.3575 43.7808 69.6775 43.8908 69.0175 43.9908C68.3575 44.0908 67.7575 44.1808 67.2375 44.2408C66.0875 44.4108 65.0775 44.6808 64.2075 45.0508C63.3375 45.4208 62.6575 45.9208 62.1775 46.5308C61.6975 47.1508 61.4575 47.9308 61.4575 48.8908C61.4575 49.7908 61.6875 50.5408 62.1475 51.1608C62.6075 51.7808 63.2275 52.2408 64.0275 52.5508C64.8275 52.8608 65.7275 53.0208 66.7475 53.0208L66.7375 53.0408Z" fill="white"/>
<path d="M86.3828 56.7498V26.1798C86.3828 24.9698 87.3628 23.9798 88.5828 23.9798H93.2528C94.4628 23.9798 95.4528 24.9598 95.4528 26.1798V30.0798H95.8328C96.4828 27.9098 97.5628 26.2798 99.0728 25.1698C100.583 24.0698 102.323 23.5098 104.283 23.5098C104.763 23.5098 105.283 23.5398 105.843 23.5898C106.403 23.6398 106.893 23.7198 107.313 23.8198V32.1998C106.893 32.0498 106.293 31.9398 105.503 31.8598C104.713 31.7798 103.963 31.7298 103.253 31.7298C101.833 31.7298 100.553 32.0398 99.4028 32.6498C98.2528 33.2598 97.3628 34.1198 96.7328 35.2098C96.1028 36.2998 95.7828 37.5798 95.7828 39.0398V56.7298C95.7828 57.9398 94.8028 58.9298 93.5828 58.9298H88.5928C87.3828 58.9298 86.3928 57.9498 86.3928 56.7298L86.3828 56.7498Z" fill="white"/>
<path d="M108.344 56.7496V14.5496C108.344 13.3396 109.324 12.3496 110.544 12.3496H115.534C116.744 12.3496 117.734 13.3296 117.734 14.5496V56.7496C117.734 57.9596 116.754 58.9496 115.534 58.9496H110.544C109.334 58.9496 108.344 57.9696 108.344 56.7496ZM120.694 44.3896C119.354 45.8996 116.854 44.9496 116.854 42.9296V37.4296H118.264L129.054 24.7596C129.474 24.2696 130.084 23.9896 130.724 23.9896H135.774C137.654 23.9896 138.664 26.1996 137.434 27.6196L126.114 40.7696C125.694 41.2496 125.084 41.5296 124.454 41.5296H124.224C123.594 41.5296 122.994 41.7996 122.584 42.2696L120.704 44.3896H120.694ZM129.514 57.9896L120.664 45.0796C120.084 44.2296 120.164 43.0796 120.874 42.3296L124.084 38.9296C125.044 37.9196 126.694 38.0396 127.484 39.1796L138.804 55.4896C139.814 56.9496 138.774 58.9396 137.004 58.9396H131.324C130.604 58.9396 129.924 58.5796 129.514 57.9896Z" fill="white"/>
<path d="M154.721 59.6408C151.151 59.6408 148.081 58.9108 145.501 57.4508C142.911 55.9908 140.931 53.9208 139.541 51.2308C138.151 48.5408 137.461 45.3508 137.461 41.6608C137.461 37.9708 138.151 34.8908 139.521 32.1808C140.901 29.4708 142.851 27.3508 145.371 25.8308C147.891 24.3108 150.851 23.5508 154.251 23.5508C156.541 23.5508 158.681 23.9208 160.661 24.6408C162.641 25.3708 164.381 26.4708 165.881 27.9408C167.381 29.4108 168.551 31.2508 169.401 33.4608C170.251 35.6708 170.671 38.2808 170.671 41.2808V43.9108H143.501C142.291 43.9108 141.301 42.9308 141.301 41.7108V40.2208C141.301 39.0108 142.281 38.0208 143.501 38.0208H166.071L164.371 38.6308C163.131 39.0708 161.711 38.3408 161.481 37.0408C161.341 36.2508 161.131 35.5208 160.861 34.8508C160.311 33.5108 159.481 32.4608 158.391 31.7208C157.301 30.9808 155.951 30.6108 154.341 30.6108C152.731 30.6108 151.331 30.9908 150.201 31.7408C149.071 32.4908 148.201 33.5108 147.621 34.7908C147.041 36.0708 146.751 37.5408 146.751 39.1808V43.3408C146.751 45.3608 147.091 47.0608 147.771 48.4408C148.451 49.8208 149.401 50.8508 150.621 51.5408C151.841 52.2308 153.261 52.5708 154.891 52.5708C155.991 52.5708 157.001 52.4108 157.891 52.1008C158.781 51.7908 159.551 51.3208 160.191 50.7108C160.501 50.4108 160.771 50.0908 161.001 49.7308C161.491 48.9808 162.361 48.5808 163.241 48.7508L167.451 49.5408C168.941 49.8208 169.731 51.5008 168.961 52.8108C168.481 53.6308 167.901 54.3908 167.211 55.1008C165.811 56.5508 164.071 57.6708 161.971 58.4608C159.881 59.2508 157.461 59.6508 154.731 59.6508L154.721 59.6408Z" fill="white"/>
<path d="M178.361 15.6699H182.531C183.741 15.6699 184.731 16.6499 184.731 17.8699V48.7299C184.731 49.8399 184.981 50.6499 185.471 51.1899C185.961 51.7299 186.781 51.9899 187.921 51.9899C188.271 51.9899 188.771 51.9399 189.421 51.8499C190.071 51.7599 190.561 51.6699 190.891 51.5799C190.891 54.0399 190.911 56.4999 190.911 58.9599C190.461 59.0599 189.851 59.1799 189.121 59.2699C189.121 59.2699 187.571 59.4599 186.161 59.4599C182.661 59.4599 179.981 58.6099 178.121 56.8999C176.371 55.2899 175.451 53.0299 175.351 50.1099C175.341 49.7499 175.431 49.3699 175.581 49.0399C185.421 28.4599 189.561 23.4199 191.261 23.9999C192.591 24.4499 192.901 28.5199 191.261 31.1599C187.591 37.0799 173.571 36.7999 170.531 31.1599C169.331 28.9299 170.001 26.1499 170.531 23.9999C171.081 21.7299 172.041 19.8899 173.011 18.4699C174.211 16.6999 176.231 15.6799 178.371 15.6799L178.361 15.6699Z" fill="white"/>
<path d="M194.169 56.75V26.18C194.169 24.97 195.149 23.98 196.369 23.98H201.359C202.569 23.98 203.559 24.96 203.559 26.18V56.75C203.559 57.96 202.579 58.95 201.359 58.95H196.369C195.159 58.95 194.169 57.97 194.169 56.75ZM198.849 19.22C198.779 14.27 195.099 10.19 189.969 9.62C191.999 9.32 193.789 8.66 195.299 7.38C195.759 6.97 196.179 6.57 196.579 6.12C197.759 4.68 198.609 3.03 198.759 1.17L198.849 0C198.889 2.23 199.659 4.37 201.109 6.1C202.839 8.16 205.009 9.22 207.719 9.61C205.169 9.94 203.009 10.98 201.339 12.83C199.769 14.57 198.919 16.75 198.829 19.22H198.849Z" fill="white"/>
<path d="M215.781 38.7205V56.7605C215.781 57.9705 214.801 58.9605 213.581 58.9605H208.591C207.381 58.9605 206.391 57.9805 206.391 56.7605V26.1905C206.391 24.9805 207.371 23.9905 208.591 23.9905H213.081C214.281 23.9905 215.251 24.9505 215.281 26.1505L215.401 32.7205H214.841C215.761 29.8005 217.151 27.5405 219.011 25.9505C220.871 24.3605 223.291 23.5605 226.251 23.5605C228.671 23.5605 230.781 24.0905 232.581 25.1405C234.381 26.1905 235.781 27.7005 236.771 29.6705C237.761 31.6405 238.261 33.9905 238.261 36.7205V56.7605C238.261 57.9705 237.281 58.9605 236.061 58.9605H231.071C229.861 58.9605 228.871 57.9805 228.871 56.7605V38.3505C228.871 36.1805 228.311 34.4805 227.201 33.2505C226.081 32.0205 224.541 31.4005 222.561 31.4005C221.251 31.4005 220.071 31.6905 219.041 32.2605C218.011 32.8305 217.211 33.6605 216.631 34.7505C216.051 35.8405 215.771 37.1605 215.771 38.7205H215.781Z" fill="white"/>
<path d="M256.692 72.7691C253.772 72.7691 251.232 72.3991 249.062 71.6591C246.892 70.9191 245.132 69.8991 243.772 68.6091C243.172 68.0391 242.652 67.4291 242.222 66.7891C241.392 65.5691 242.072 63.8891 243.492 63.4891L247.452 62.3791C248.342 62.1291 249.242 62.4991 249.822 63.2091C249.992 63.4191 250.182 63.6291 250.382 63.8291C251.002 64.4491 251.812 64.9491 252.832 65.3491C253.852 65.7491 255.112 65.9391 256.612 65.9391C259.012 65.9391 260.892 65.3891 262.252 64.2991C263.612 63.2091 264.302 61.4991 264.302 59.1891V52.7491H263.582C263.162 53.6891 262.562 54.5991 261.772 55.4691C260.982 56.3391 259.942 57.0591 258.662 57.6091C257.382 58.1591 255.792 58.4391 253.892 58.4391C251.262 58.4391 248.882 57.8191 246.732 56.5891C244.582 55.3591 242.872 53.4791 241.592 50.9591C240.312 48.4391 239.672 45.2491 239.672 41.3891C239.672 37.5291 240.322 34.1591 241.622 31.5091C242.922 28.8591 244.652 26.8691 246.812 25.5391C248.972 24.2091 251.342 23.5391 253.922 23.5391C255.882 23.5391 257.532 23.8691 258.862 24.5291C260.192 25.1891 261.272 26.0091 262.102 26.9991C262.922 27.9891 263.542 28.9391 263.962 29.8591H264.372V26.1791C264.372 24.9691 265.352 23.9791 266.572 23.9791H271.402C272.612 23.9791 273.602 24.9591 273.602 26.1791V58.6591C273.602 61.8091 272.882 64.4191 271.432 66.5091C269.982 68.5891 267.992 70.1591 265.442 71.1991C262.902 72.2391 259.982 72.7591 256.682 72.7591L256.692 72.7691ZM256.852 51.3191C258.462 51.3191 259.822 50.9191 260.932 50.1291C262.042 49.3391 262.892 48.1991 263.482 46.7091C264.072 45.2191 264.362 43.4291 264.362 41.3491C264.362 39.2691 264.072 37.4791 263.482 35.9391C262.892 34.3991 262.052 33.1991 260.932 32.3391C259.812 31.4891 258.452 31.0591 256.852 31.0591C255.252 31.0591 253.822 31.4991 252.712 32.3891C251.592 33.2791 250.752 34.4891 250.182 36.0291C249.612 37.5691 249.322 39.3391 249.322 41.3491C249.322 43.3591 249.612 45.1591 250.182 46.6491C250.752 48.1391 251.602 49.2891 252.732 50.1091C253.862 50.9291 255.232 51.3291 256.862 51.3291L256.852 51.3191Z" fill="white"/>
<path d="M84.417 77.2983C84.1441 74.9938 83.0374 73.2048 81.0968 71.9313C79.1562 70.6578 76.7759 70.021 73.9559 70.021C71.894 70.021 70.0899 70.3546 68.5435 71.0217C67.0122 71.6887 65.8145 72.606 64.9503 73.7734C64.1013 74.9408 63.6768 76.2674 63.6768 77.7531C63.6768 78.9963 63.9724 80.0652 64.5637 80.9597C65.1701 81.839 65.9434 82.5743 66.8833 83.1656C67.8233 83.7417 68.8088 84.2193 69.8397 84.5983C70.8707 84.9622 71.8182 85.2578 72.6824 85.4852L77.4126 86.7588C78.6255 87.0771 79.9748 87.5168 81.4606 88.0778C82.9616 88.6387 84.3943 89.4044 85.7588 90.3747C87.1384 91.3298 88.2755 92.5578 89.17 94.0588C90.0645 95.5597 90.5117 97.4018 90.5117 99.585C90.5117 102.102 89.8522 104.376 88.5332 106.407C87.2294 108.439 85.3191 110.054 82.8024 111.251C80.3008 112.449 77.261 113.048 73.683 113.048C70.3476 113.048 67.4595 112.51 65.0185 111.433C62.5928 110.357 60.6825 108.856 59.2877 106.93C57.908 105.005 57.1272 102.769 56.9453 100.222H62.7671C62.9187 101.98 63.51 103.436 64.541 104.588C65.5871 105.725 66.9061 106.574 68.498 107.135C70.105 107.681 71.8334 107.954 73.683 107.954C75.8359 107.954 77.7689 107.605 79.4821 106.908C81.1953 106.195 82.5522 105.21 83.5528 103.951C84.5535 102.678 85.0538 101.192 85.0538 99.494C85.0538 97.9476 84.6217 96.6892 83.7575 95.7189C82.8933 94.7486 81.7563 93.9602 80.3463 93.3538C78.9363 92.7474 77.4126 92.2167 75.7753 91.7619L70.0444 90.1245C66.4058 89.0784 63.5252 87.585 61.4026 85.6444C59.2801 83.7038 58.2188 81.1644 58.2188 78.026C58.2188 75.4183 58.9238 73.1442 60.3338 71.2036C61.7589 69.2478 63.6692 67.7317 66.0646 66.6553C68.4752 65.5637 71.1663 65.0179 74.1379 65.0179C77.1397 65.0179 79.8081 65.5561 82.1429 66.6326C84.4777 67.6938 86.3273 69.1493 87.6918 70.9989C89.0714 72.8486 89.7992 74.9484 89.875 77.2983H84.417Z" fill="white"/>
<path d="M114.248 77.2983V81.8466H96.1459V77.2983H114.248ZM101.422 68.9294H106.789V102.223C106.789 103.739 107.009 104.876 107.448 105.634C107.903 106.377 108.479 106.877 109.177 107.135C109.889 107.378 110.64 107.499 111.428 107.499C112.019 107.499 112.505 107.469 112.884 107.408C113.263 107.332 113.566 107.272 113.793 107.226L114.885 112.047C114.521 112.184 114.013 112.32 113.361 112.457C112.709 112.608 111.883 112.684 110.882 112.684C109.366 112.684 107.881 112.358 106.425 111.706C104.985 111.054 103.787 110.061 102.832 108.727C101.892 107.393 101.422 105.71 101.422 103.678V68.9294Z" fill="white"/>
<path d="M144.335 97.9476V77.2983H149.702V112.229H144.335V106.316H143.971C143.153 108.09 141.879 109.599 140.151 110.842C138.422 112.07 136.239 112.684 133.601 112.684C131.418 112.684 129.477 112.206 127.779 111.251C126.081 110.281 124.747 108.826 123.777 106.885C122.807 104.929 122.321 102.466 122.321 99.494V77.2983H127.688V99.1301C127.688 101.677 128.401 103.709 129.826 105.225C131.266 106.741 133.101 107.499 135.329 107.499C136.664 107.499 138.021 107.158 139.4 106.476C140.795 105.793 141.962 104.747 142.902 103.337C143.858 101.927 144.335 100.131 144.335 97.9476Z" fill="white"/>
<path d="M172.722 112.957C169.811 112.957 167.241 112.222 165.013 110.751C162.784 109.265 161.041 107.173 159.782 104.474C158.524 101.761 157.895 98.554 157.895 94.8547C157.895 91.1858 158.524 88.002 159.782 85.3033C161.041 82.6047 162.792 80.52 165.036 79.0494C167.279 77.5788 169.872 76.8435 172.813 76.8435C175.087 76.8435 176.884 77.2225 178.203 77.9806C179.537 78.7234 180.553 79.5725 181.25 80.5276C181.963 81.4676 182.516 82.2408 182.91 82.8472H183.365V65.6547H188.732V112.229H183.547V106.862H182.91C182.516 107.499 181.955 108.303 181.227 109.273C180.5 110.228 179.461 111.085 178.112 111.843C176.763 112.586 174.966 112.957 172.722 112.957ZM173.45 108.136C175.603 108.136 177.422 107.575 178.908 106.453C180.394 105.316 181.523 103.747 182.296 101.745C183.07 99.729 183.456 97.4018 183.456 94.7638C183.456 92.1561 183.077 89.8743 182.319 87.9186C181.561 85.9477 180.439 84.4164 178.953 83.3248C177.468 82.218 175.633 81.6647 173.45 81.6647C171.176 81.6647 169.281 82.2484 167.765 83.4158C166.264 84.568 165.134 86.1372 164.376 88.1233C163.633 90.0942 163.262 92.3077 163.262 94.7638C163.262 97.2502 163.641 99.5092 164.399 101.541C165.172 103.557 166.309 105.164 167.81 106.362C169.326 107.544 171.206 108.136 173.45 108.136Z" fill="white"/>
<path d="M199.307 112.229V77.2983H204.674V112.229H199.307ZM202.036 71.4765C200.99 71.4765 200.088 71.1202 199.33 70.4076C198.587 69.6951 198.215 68.8385 198.215 67.8379C198.215 66.8372 198.587 65.9806 199.33 65.2681C200.088 64.5555 200.99 64.1992 202.036 64.1992C203.082 64.1992 203.977 64.5555 204.719 65.2681C205.477 65.9806 205.857 66.8372 205.857 67.8379C205.857 68.8385 205.477 69.6951 204.719 70.4076C203.977 71.1202 203.082 71.4765 202.036 71.4765Z" fill="white"/>
<path d="M228.695 112.957C225.541 112.957 222.774 112.206 220.394 110.706C218.029 109.205 216.179 107.105 214.845 104.406C213.526 101.707 212.867 98.554 212.867 94.9457C212.867 91.3071 213.526 88.1308 214.845 85.417C216.179 82.7032 218.029 80.5958 220.394 79.0949C222.774 77.5939 225.541 76.8435 228.695 76.8435C231.848 76.8435 234.607 77.5939 236.973 79.0949C239.353 80.5958 241.202 82.7032 242.521 85.417C243.856 88.1308 244.523 91.3071 244.523 94.9457C244.523 98.554 243.856 101.707 242.521 104.406C241.202 107.105 239.353 109.205 236.973 110.706C234.607 112.206 231.848 112.957 228.695 112.957ZM228.695 108.136C231.09 108.136 233.061 107.522 234.607 106.294C236.154 105.066 237.299 103.451 238.041 101.45C238.784 99.4485 239.156 97.2805 239.156 94.9457C239.156 92.6109 238.784 90.4353 238.041 88.4189C237.299 86.4025 236.154 84.7727 234.607 83.5295C233.061 82.2863 231.09 81.6647 228.695 81.6647C226.299 81.6647 224.328 82.2863 222.782 83.5295C221.235 84.7727 220.091 86.4025 219.348 88.4189C218.605 90.4353 218.234 92.6109 218.234 94.9457C218.234 97.2805 218.605 99.4485 219.348 101.45C220.091 103.451 221.235 105.066 222.782 106.294C224.328 107.522 226.299 108.136 228.695 108.136Z" fill="white"/>
</g>
<defs>
<clipPath id="clip0_25972_70918">
<rect width="273.61" height="134.91" fill="white"/>
</clipPath>
</defs>
</svg>
