<?xml version="1.0" encoding="UTF-8"?>
<svg id="Layer_2" data-name="Layer 2" xmlns="http://www.w3.org/2000/svg" viewBox="0 0 273.61 134.91">
  <defs>
    <style>
      .cls-1, .cls-2 {
        fill: #fff;
      }

      .cls-2 {
        font-family: InterVariable-Light, 'Inter Variable';
        font-size: 64.04px;
        font-variation-settings: 'opsz' 14, 'wght' 300;
        font-weight: 300;
        letter-spacing: -.08em;
      }
    </style>
  </defs>
  <g id="Layer_1-2" data-name="Layer 1">
    <g>
      <g>
        <path class="cls-1" d="M0,56.75V14.55c0-1.21.98-2.2,2.2-2.2h10.89c.93,0,1.76.59,2.07,1.46l7.05,19.93c.31,1,.67,2.29,1.08,3.88s.82,3.29,1.24,5.13.81,3.62,1.17,5.35c.36,1.73.66,3.23.89,4.5.42-.72.83-1.43,1.25-2.15-.78-.42-1.81-1.13-2.2-2.31-.43-1.28.42-2.03,1.17-5.33.42-1.83.83-3.55,1.23-5.16s.77-2.91,1.08-3.91l6.93-19.91c.31-.88,1.14-1.47,2.07-1.47h10.94c1.21,0,2.2.98,2.2,2.2v42.2c0,1.21-.98,2.2-2.2,2.2h-5.21c-1.21,0-2.2-.98-2.2-2.2v-19.76c0-1.02.02-2.29.05-3.82s.07-3.16.13-4.92c.05-1.76.1-3.53.14-5.32s.07-3.47.09-5.05h.59c-.4,1.73-.83,3.52-1.31,5.36s-.96,3.63-1.45,5.36c-.49,1.73-.95,3.32-1.39,4.77s-.81,2.65-1.13,3.61l-7.21,20.48c-.31.88-1.14,1.47-2.07,1.47h-4.93c-.93,0-1.76-.58-2.07-1.46l-7.33-20.5c-.31-.96-.69-2.15-1.13-3.58s-.9-3.01-1.39-4.74-.99-3.52-1.49-5.36-.97-3.65-1.41-5.43h.72c.02,1.5.05,3.14.09,4.91.04,1.77.09,3.55.14,5.33s.09,3.44.13,4.97c.03,1.53.05,2.83.05,3.89v19.76c0,1.21-.98,2.2-2.2,2.2H2.2c-1.21,0-2.2-.98-2.2-2.2Z"/>
        <path class="cls-1" d="M64.08,59.64c-2.21,0-4.2-.39-5.96-1.17-1.76-.78-3.15-1.95-4.16-3.5s-1.52-3.49-1.52-5.8c0-1.94.36-3.56,1.08-4.88s1.7-2.37,2.94-3.16,2.65-1.4,4.22-1.81,3.23-.71,4.96-.88c2.02-.21,3.65-.4,4.89-.58,1.24-.18,2.15-.46,2.72-.84.57-.38.86-.95.86-1.7v-.16c0-1-.21-1.85-.63-2.53s-1.04-1.21-1.86-1.58c-.82-.36-1.82-.55-2.99-.55s-2.26.18-3.16.55-1.63.85-2.19,1.45c-.22.24-.42.49-.6.76-.5.74-1.34,1.16-2.22,1.02l-4.27-.7c-1.52-.25-2.33-1.95-1.56-3.28.5-.87,1.1-1.66,1.8-2.37,1.4-1.42,3.13-2.5,5.21-3.25s4.41-1.13,7.02-1.13c1.88,0,3.7.22,5.47.67s3.36,1.14,4.77,2.08,2.52,2.16,3.35,3.68,1.24,3.32,1.24,5.43v21.35c0,1.21-.98,2.2-2.2,2.2h-4.49c-1.21,0-2.2-.98-2.2-2.2v-2.65h-.31c-.56,1.08-1.31,2.04-2.25,2.86s-2.07,1.47-3.39,1.95c-1.32.48-2.85.72-4.58.72ZM66.74,53.04c1.48,0,2.78-.29,3.89-.88,1.11-.58,1.99-1.38,2.61-2.38s.94-2.12.94-3.35v-3.78c-.27.21-.69.4-1.25.56s-1.19.31-1.88.44-1.37.24-2.03.34-1.26.19-1.78.25c-1.15.17-2.16.44-3.03.81s-1.55.87-2.03,1.48c-.48.62-.72,1.4-.72,2.36,0,.9.23,1.65.69,2.27.46.62,1.08,1.08,1.88,1.39s1.7.47,2.72.47Z"/>
        <path class="cls-1" d="M86.38,56.75v-30.57c0-1.21.98-2.2,2.2-2.2h4.67c1.21,0,2.2.98,2.2,2.2v3.9h.38c.65-2.17,1.73-3.8,3.24-4.91,1.51-1.1,3.25-1.66,5.21-1.66.48,0,1,.03,1.56.08s1.05.13,1.47.23v8.38c-.42-.15-1.02-.26-1.81-.34s-1.54-.13-2.25-.13c-1.42,0-2.7.31-3.85.92s-2.04,1.47-2.67,2.56-.95,2.37-.95,3.83v17.69c0,1.21-.98,2.2-2.2,2.2h-4.99c-1.21,0-2.2-.98-2.2-2.2Z"/>
        <path class="cls-1" d="M108.34,56.75V14.55c0-1.21.98-2.2,2.2-2.2h4.99c1.21,0,2.2.98,2.2,2.2v42.2c0,1.21-.98,2.2-2.2,2.2h-4.99c-1.21,0-2.2-.98-2.2-2.2ZM120.69,44.39c-1.34,1.51-3.84.56-3.84-1.46v-5.5h1.41l10.79-12.67c.42-.49,1.03-.77,1.67-.77h5.05c1.88,0,2.89,2.21,1.66,3.63l-11.32,13.15c-.42.48-1.03.76-1.66.76h-.23c-.63,0-1.23.27-1.64.74l-1.88,2.12ZM129.51,57.99l-8.85-12.91c-.58-.85-.5-2,.21-2.75l3.21-3.4c.96-1.01,2.61-.89,3.4.25l11.32,16.31c1.01,1.46-.03,3.45-1.8,3.45h-5.68c-.72,0-1.4-.36-1.81-.95Z"/>
        <path class="cls-1" d="M154.72,59.64c-3.57,0-6.64-.73-9.22-2.19-2.59-1.46-4.57-3.53-5.96-6.22s-2.08-5.88-2.08-9.57.69-6.77,2.06-9.48c1.38-2.71,3.33-4.83,5.85-6.35,2.52-1.52,5.48-2.28,8.88-2.28,2.29,0,4.43.37,6.41,1.09,1.98.73,3.72,1.83,5.22,3.3s2.67,3.31,3.52,5.52,1.27,4.82,1.27,7.82v2.63h-27.17c-1.21,0-2.2-.98-2.2-2.2v-1.49c0-1.21.98-2.2,2.2-2.2h22.57l-1.7.61c-1.24.44-2.66-.29-2.89-1.59-.14-.79-.35-1.52-.62-2.19-.55-1.34-1.38-2.39-2.47-3.13s-2.44-1.11-4.05-1.11-3.01.38-4.14,1.13-2,1.77-2.58,3.05c-.58,1.28-.87,2.75-.87,4.39v4.16c0,2.02.34,3.72,1.02,5.1s1.63,2.41,2.85,3.1,2.64,1.03,4.27,1.03c1.1,0,2.11-.16,3-.47s1.66-.78,2.3-1.39c.31-.3.58-.62.81-.98.49-.75,1.36-1.15,2.24-.98l4.21.79c1.49.28,2.28,1.96,1.51,3.27-.48.82-1.06,1.58-1.75,2.29-1.4,1.45-3.14,2.57-5.24,3.36-2.09.79-4.51,1.19-7.24,1.19Z"/>
        <path class="cls-1" d="M178.36,15.67h4.17c1.21,0,2.2.98,2.2,2.2v30.86c0,1.11.25,1.92.74,2.46s1.31.8,2.45.8c.35,0,.85-.05,1.5-.14s1.14-.18,1.47-.27c0,2.46.02,4.92.02,7.38-.45.1-1.06.22-1.79.31,0,0-1.55.19-2.96.19-3.5,0-6.18-.85-8.04-2.56-1.75-1.61-2.67-3.87-2.77-6.79-.01-.36.08-.74.23-1.07,9.84-20.58,13.98-25.62,15.68-25.04,1.33.45,1.64,4.52,0,7.16-3.67,5.92-17.69,5.64-20.73,0-1.2-2.23-.53-5.01,0-7.16.55-2.27,1.51-4.11,2.48-5.53,1.2-1.77,3.22-2.79,5.36-2.79Z"/>
        <path class="cls-1" d="M194.17,56.75v-30.57c0-1.21.98-2.2,2.2-2.2h4.99c1.21,0,2.2.98,2.2,2.2v30.57c0,1.21-.98,2.2-2.2,2.2h-4.99c-1.21,0-2.2-.98-2.2-2.2ZM198.85,19.22c-.07-4.95-3.75-9.03-8.88-9.6,2.03-.3,3.82-.96,5.33-2.24.46-.41.88-.81,1.28-1.26,1.18-1.44,2.03-3.09,2.18-4.95l.09-1.17c.04,2.23.81,4.37,2.26,6.1,1.73,2.06,3.9,3.12,6.61,3.51-2.55.33-4.71,1.37-6.38,3.22-1.57,1.74-2.42,3.92-2.51,6.39Z"/>
        <path class="cls-1" d="M215.78,38.72v18.04c0,1.21-.98,2.2-2.2,2.2h-4.99c-1.21,0-2.2-.98-2.2-2.2v-30.57c0-1.21.98-2.2,2.2-2.2h4.49c1.2,0,2.17.96,2.2,2.16l.12,6.57h-.56c.92-2.92,2.31-5.18,4.17-6.77,1.86-1.59,4.28-2.39,7.24-2.39,2.42,0,4.53.53,6.33,1.58s3.2,2.56,4.19,4.53,1.49,4.32,1.49,7.05v20.04c0,1.21-.98,2.2-2.2,2.2h-4.99c-1.21,0-2.2-.98-2.2-2.2v-18.41c0-2.17-.56-3.87-1.67-5.1-1.12-1.23-2.66-1.85-4.64-1.85-1.31,0-2.49.29-3.52.86s-1.83,1.4-2.41,2.49-.86,2.41-.86,3.97Z"/>
        <path class="cls-1" d="M256.69,72.77c-2.92,0-5.46-.37-7.63-1.11-2.17-.74-3.93-1.76-5.29-3.05-.6-.57-1.12-1.18-1.55-1.82-.83-1.22-.15-2.9,1.27-3.3l3.96-1.11c.89-.25,1.79.12,2.37.83.17.21.36.42.56.62.62.62,1.43,1.12,2.45,1.52,1.02.4,2.28.59,3.78.59,2.4,0,4.28-.55,5.64-1.64s2.05-2.8,2.05-5.11v-6.44h-.72c-.42.94-1.02,1.85-1.81,2.72s-1.83,1.59-3.11,2.14-2.87.83-4.77.83c-2.63,0-5.01-.62-7.16-1.85-2.15-1.23-3.86-3.11-5.14-5.63-1.28-2.52-1.92-5.71-1.92-9.57s.65-7.23,1.95-9.88c1.3-2.65,3.03-4.64,5.19-5.97,2.16-1.33,4.53-2,7.11-2,1.96,0,3.61.33,4.94.99s2.41,1.48,3.24,2.47c.82.99,1.44,1.94,1.86,2.86h.41v-3.68c0-1.21.98-2.2,2.2-2.2h4.83c1.21,0,2.2.98,2.2,2.2v32.48c0,3.15-.72,5.76-2.17,7.85-1.45,2.08-3.44,3.65-5.99,4.69-2.54,1.04-5.46,1.56-8.76,1.56ZM256.85,51.32c1.61,0,2.97-.4,4.08-1.19,1.11-.79,1.96-1.93,2.55-3.42s.88-3.28.88-5.36-.29-3.87-.88-5.41-1.43-2.74-2.55-3.6c-1.12-.85-2.48-1.28-4.08-1.28s-3.03.44-4.14,1.33c-1.12.89-1.96,2.1-2.53,3.64s-.86,3.31-.86,5.32.29,3.81.86,5.3,1.42,2.64,2.55,3.46,2.5,1.22,4.13,1.22Z"/>
      </g>
      <text class="cls-2" transform="translate(53.31 114.27)"><tspan x="0" y="0">Studio</tspan></text>
    </g>
  </g>
</svg>